PathFileType	4	(X/Y/Z)	C:\Users\WrightLab\Desktop\Jo\P3_7.trc
DataRate	CameraRate	NumFrames	NumMarkers	Units	OrigDataRate	OrigDataStartFrame	OrigNumFrames
100.00	100.00	       20	19	mm	100.00	433	       576
Frame#	Time	Headset_Front			Headset_Back			Headset_Left			Headset_Right			Left_Shoulder			Right_Shoulder			Sternum			C7			Left Elbow			Right Elbow			Left Wrist			Right Wrist			Left ASIS			Right ASIS			S2			Left Knee			Right Knee			Left Ankle			Right Ankle			
		X1	Y1	Z1	X2	Y2	Z2	X3	Y3	Z3	X4	Y4	Z4	X5	Y5	Z5	X6	Y6	Z6	X7	Y7	Z7	X8	Y8	Z8	X9	Y9	Z9	X10	Y10	Z10	X11	Y11	Z11	X12	Y12	Z12	X13	Y13	Z13	X14	Y14	Z14	X15	Y15	Z15	X16	Y16	Z16	X17	Y17	Z17	X18	Y18	Z18	X19	Y19	Z19	

433	4.320	-45.86954	1513.70496	2007.60461	104.99212	1592.88232	1885.40820	-120.87721	1552.53589	1884.60461				205.17021	1356.64270	1837.31152	-138.61519	1373.68298	1736.02075	-3.80133	1263.41370	1927.83765				262.42322	1023.73944	1872.22180	-222.37730	1034.89612	1704.40356	231.20885	847.82355	1979.60730	-248.87820	849.82080	1842.91174	112.54023	890.03680	1942.74939	-136.78743	900.26624	1905.57629	26.90621	959.69214	1713.16992	176.03957	472.43619	1812.22583	-112.39059	488.03500	1983.14734	196.17674	221.70993	1584.01050	-87.11906	150.90218	2002.61230	
434	4.330	-48.22336	1515.16248	2014.50793	102.92876	1594.37244	1892.56860	-122.86273	1554.21863	1892.13391				202.69765	1358.20923	1846.03455	-139.89410	1375.82251	1744.21594	-7.31996	1265.72290	1936.07959				257.71121	1024.74329	1876.29395	-225.32152	1036.57703	1714.04114	227.73911	847.49725	1983.70032	-252.56987	853.44336	1852.44519	108.41430	891.06366	1951.77527	-140.02512	902.35400	1914.14124	24.59042	961.87720	1722.13489	174.85841	472.79459	1832.52625	-114.13630	487.54074	1990.50708	196.89713	227.49954	1595.96252	-87.59818	150.32913	2004.32007	
435	4.340	-50.77473	1518.04395	2023.87207	100.73416	1596.03149	1901.71680	-125.39357	1556.99268	1901.44568				199.77617	1358.09314	1853.69092	-142.33484	1377.75415	1752.49268	-10.46008	1267.91663	1945.71289				254.13203	1025.12134	1882.38782	-228.50620	1038.63135	1723.07275	224.72147	847.51239	1988.33154	-256.15503	856.09961	1861.25085	104.45341	893.21863	1960.98462	-143.18413	904.40167	1923.41406	22.08097	964.24860	1729.55139	172.84637	471.97104	1847.30664	-114.94846	486.01666	1994.90381	196.67900	232.37119	1608.72070	-87.71980	150.29730	2005.21692	
436	4.350	-52.77153	1520.12793	2031.09497	98.64149	1597.34985	1908.65552	-127.36069	1558.17908	1908.65723				197.69460	1358.33142	1861.97656	-144.45903	1379.34521	1760.54272	-13.89203	1270.12048	1954.18591				250.54214	1025.92664	1888.13599	-231.76050	1042.48059	1726.80054	221.53169	846.62671	1992.95532	-260.27527	859.24872	1870.53455	101.55119	894.87311	1971.03076	-146.31485	905.32581	1931.73999	19.40841	964.57770	1740.41821	171.79646	470.86792	1866.03174	-117.03579	485.90768	2001.25659	196.51247	237.97295	1621.12500	-87.78745	150.26624	2006.06445	
437	4.360	-55.81498	1522.51440	2039.88245	97.07174	1598.66516	1917.49902	-129.27930	1560.51270	1916.72717				195.11388	1359.71436	1870.97876	-146.07462	1381.50891	1768.94983	-17.05165	1271.04504	1961.57166				247.31259	1026.52429	1893.34521	-235.14587	1044.75513	1733.88452	218.71117	846.80212	1997.50452	-263.98022	862.40558	1878.80798	98.51067	895.97308	1978.74316	-149.23740	906.34357	1939.92700	16.87635	965.88031	1747.15454	169.29530	471.23590	1885.07349	-118.17684	485.36639	2006.72339	195.76472	242.96120	1638.05505	-88.44811	150.14256	2007.42920	
438	4.370	-57.82872	1525.09009	2047.82141	94.90070	1599.15869	1924.30835							192.83699	1359.97241	1879.46436	-148.19826	1382.60291	1776.25049	-19.67038	1272.92883	1971.08350				243.70070	1027.48303	1900.94434	-238.85234	1046.84351	1740.80188	216.08983	845.77722	2001.73120	-268.42978	865.67053	1887.71106	95.72153	897.03973	1988.07959	-151.86565	906.77942	1948.15991	14.21078	966.99438	1756.43481	166.33136	471.70520	1904.35852	-119.18576	485.96082	2011.96106	194.78162	248.70508	1652.05176	-88.71131	150.10660	2008.11157	
439	4.380	-60.63293	1526.84814	2056.01514	93.02590	1600.54602	1933.25903	-133.63049	1563.35522	1932.00916				190.85078	1360.39490	1887.93250	-150.48277	1384.29126	1785.39551	-22.48181	1273.52954	1979.32849				240.64673	1027.78235	1907.89673	-242.44757	1048.69714	1747.89539	213.26302	845.69495	2007.07581	-272.36957	868.02722	1895.23535	93.26189	898.55969	1996.73328	-154.00992	906.54767	1955.99976	10.97897	967.08496	1763.67200	163.85457	471.47876	1922.40149	-121.12642	485.75009	2016.75269	193.66930	254.13853	1669.70325	-88.88941	150.14906	2009.00012	
440	4.390	-62.82692	1529.12073	2064.18555	90.80717	1601.71008	1940.74890	-135.51691	1565.93542	1940.15161				188.79585	1360.68945	1896.03137	-152.74739	1385.39941	1793.96399	-24.89989	1274.11731	1987.55957				237.95015	1027.81140	1914.69067				210.35579	844.80365	2012.25867	-277.14459	871.10071	1905.42297	90.55261	899.36298	2005.14880	-156.48248	906.60754	1962.87439	8.70996	967.08014	1773.19543	160.41882	472.95969	1942.89392	-122.12475	485.10669	2020.07690	192.82471	259.21030	1683.29016	-88.93848	150.38402	2009.55994	
441	4.400	-65.50854	1530.35938	2071.70361	88.99660	1602.63831	1949.58228	-137.99870	1566.27991	1947.07458				186.82141	1361.06458	1904.42615	-155.14468	1386.73560	1801.72876	-26.81492	1275.00317	1996.47998				235.03217	1028.30408	1921.91443	-250.15298	1052.50671	1762.99744	207.58878	844.67645	2017.85376	-281.21310	874.04755	1913.48975	88.56976	900.44031	2013.98523	-159.29379	906.57147	1970.15662	6.06840	967.73761	1781.33850	157.30312	472.61481	1959.91431	-124.03542	484.66879	2024.06824	190.75978	264.84549	1700.02246	-89.20946	150.34326	2011.06201	
442	4.410	-67.93689	1531.71814	2079.61499	86.88465	1602.78784	1956.06213							185.03172	1361.76697	1911.78308	-157.06805	1388.36121	1810.63806	-28.85142	1274.68127	2003.20032				231.83862	1028.54700	1928.52625	-254.21390	1054.38623	1770.00916	204.97176	844.76007	2024.76599	-285.66440	876.52454	1922.03979	86.14143	900.88733	2021.26025	-161.62288	906.39966	1976.34680	3.49704	967.82458	1788.81714	153.60843	475.32776	1981.28430	-124.96862	484.39322	2026.89905	189.78949	270.76215	1716.16602	-89.42699	150.21713	2011.94153	
443	4.420	-70.09576	1532.86243	2087.15479	84.58846	1604.29309	1965.55786	-142.51631	1569.33276	1963.49243				183.10994	1362.41492	1919.90784	-159.44563	1389.39734	1818.46985	-30.41274	1275.57959	2012.33362				229.30817	1028.45349	1935.80969				202.62169	844.90192	2031.83911	-289.57443	879.06036	1930.22864	84.01327	901.78198	2030.76782	-164.43114	907.54071	1984.18420	1.60025	968.39105	1795.22314	148.82140	476.55264	1999.96753	-126.87154	484.83740	2030.38721	187.54199	275.24442	1732.78369	-89.42362	150.34183	2012.28040	
444	4.430	-72.88702	1533.45923	2094.73853	82.59789	1604.38940	1972.05737	-144.55974	1569.94971	1969.60010				181.16806	1362.98279	1928.03284	-161.13625	1390.05713	1826.41565	-32.23584	1275.19946	2018.68335				227.47955	1029.05554	1943.39648	-262.54056	1057.69812	1786.90515	199.98073	844.86957	2038.32031	-294.04095	882.08472	1939.51599	81.24412	902.39490	2037.69092	-166.76198	907.75183	1990.86963	-0.73352	969.39154	1803.31506	145.19431	477.00858	2018.26318	-127.90037	483.86380	2032.98755	185.53957	278.29648	1750.00012	-89.67616	150.45589	2012.80042	
445	4.440	-75.42097	1534.15918	2102.36621	80.37274	1605.37122	1981.39343	-146.74693	1571.48718	1977.97852				179.19270	1363.29028	1936.16992	-163.02194	1391.67834	1835.08228	-33.33500	1275.51526	2026.96667				225.19051	1029.33362	1950.77258	-266.46722	1059.29944	1793.87134	197.14320	844.49335	2044.61755	-298.02808	884.08887	1947.26392	78.85297	902.86865	2045.32092	-169.66859	908.56903	1996.88208	-2.00773	970.07684	1809.71313	140.14186	479.92859	2037.47595	-129.09383	484.50027	2035.78040	182.25256	281.94427	1768.08948	-89.75812	150.26292	2013.66418	
446	4.450	-78.03826	1535.11035	2109.86816	78.15036	1605.88977	1988.51135	-148.55412	1571.30664	1984.41589				177.72261	1363.86499	1943.41199	-164.73825	1392.15002	1841.60596	-35.30966	1275.44873	2033.15759				223.58746	1029.47913	1957.95764				195.08569	846.06793	2052.95752	-302.29919	886.67334	1956.36255	75.31795	904.75958	2054.76294	-172.24573	909.51215	2002.66309	-3.38632	971.31915	1817.37012	134.20975	479.60397	2052.85889	-130.24858	483.63837	2038.04126	179.01082	284.12439	1788.34290	-89.69991	150.45277	2013.97388	
447	4.460	-80.91326	1535.65857	2116.72144	76.11722	1607.43115	1997.20007	-150.68460	1570.59424	1990.99487				175.93048	1363.95911	1951.23132	-165.85471	1392.94531	1849.91248	-36.44076	1276.05994	2040.93457				221.31129	1030.10571	1965.74756	-273.26776	1062.18774	1809.44482	192.61455	846.07635	2059.71533	-305.88242	888.84766	1963.66150	71.81251	905.26605	2061.58057	-174.57773	909.55725	2006.89575	-4.56039	971.55243	1823.71973	130.24101	482.17108	2071.68579	-131.74860	483.39310	2040.09717	177.01308	285.45386	1806.40869	-90.07040	150.48206	2014.33679	
448	4.470	-83.19885	1535.90173	2123.14087	73.60965	1607.71240	2004.84326	-152.67603	1571.66138	1998.55774				174.04520	1364.86365	1960.12280	-167.41055	1393.89917	1856.38269	-38.39793	1275.78149	2047.01416				219.78709	1030.42554	1972.13062	-276.45743	1063.68628	1815.73938	190.54230	847.10095	2067.26953	-310.04437	890.84583	1972.17908	67.99074	906.82941	2069.11499	-177.25847	910.22620	2012.18604	-4.94068	972.83215	1831.25623	123.82604	485.78418	2088.77856	-132.86923	483.23587	2042.33496	173.46423	284.46628	1826.62219	-90.38257	150.80019	2014.10620	
449	4.480	-86.32771	1536.69409	2131.61011	71.57198	1609.07117	2013.31250	-155.59567	1572.94910	2006.53735				172.64511	1365.14075	1967.37866	-168.35123	1395.03662	1863.12744	-39.75031	1276.65161	2054.58862				218.21974	1031.15613	1980.63989	-279.30869	1064.89783	1824.19434	188.42227	847.90979	2075.37964	-313.77579	893.67279	1979.88232	64.61533	907.36029	2075.70386	-179.92467	911.19769	2016.79236	-5.36493	973.43085	1835.40186	116.56110	488.59805	2105.35669	-134.10997	483.16782	2044.06836				-90.45368	151.04965	2014.37244	
450	4.490	-88.76167	1536.87830	2138.11255	69.37186	1609.50867	2020.73987	-157.55331	1572.47717	2012.43701				171.43976	1366.39050	1975.30969	-169.20302	1395.70361	1869.31555	-41.47296	1276.91846	2060.87573				217.03435	1031.72961	1988.16260	-281.57516	1065.81018	1830.48999	189.37416	850.64221	2088.28784	-317.57330	895.99432	1987.31873	60.66620	909.81470	2084.09448	-182.68756	911.26123	2021.20679	-5.46408	974.69269	1842.23853	110.81558	489.56293	2120.26538	-135.57262	483.24387	2045.93481	166.48650	281.85297	1868.32166	-90.63183	151.13115	2014.82788	
451	4.500	-91.55553	1536.74084	2144.84082	67.29788	1610.70642	2029.05493	-159.33063	1572.79822	2019.33826				169.82201	1367.06555	1982.35681	-170.33783	1396.55603	1875.36560	-43.34663	1277.86621	2066.92407				216.11232	1032.83691	1997.66272	-283.34338	1067.48425	1837.44812	185.90002	852.36096	2096.46509	-320.86597	898.08942	1994.72058	57.38214	910.61682	2091.46460	-185.52940	912.59918	2025.42395	-5.57050	975.42285	1851.64380	104.13215	493.93042	2138.31348	-136.62346	482.69037	2047.30554	162.51973	278.15143	1886.25671	-90.74281	151.34157	2015.07190	
452	4.510	-94.19417	1537.65381	2151.89087	65.30560	1611.06567	2036.34351	-160.87245	1573.66138	2025.45825				168.08136	1368.05066	1990.77234	-170.97000	1397.46606	1882.00952	-45.37080	1279.63330	2075.31543				214.59062	1033.77686	2005.42065				182.43950	851.74310	2100.46436	-324.49329	901.16144	2002.96741	53.44746	912.29718	2099.16284	-188.16653	912.26489	2029.30786	-5.42507	976.81519	1856.11707	96.63959	497.28424	2154.41162	-137.99695	483.17313	2049.78491	158.30283	275.80975	1908.81848	-90.81873	151.53099	2015.80396	
